<svg xmlns="http://www.w3.org/2000/svg" width="22.724" height="22.724" viewBox="0 0 22.724 22.724">
  <path id="Icon_awesome-behance-square" data-name="Icon awesome-behance-square" d="M9.46,15.489c0,.979-.71,1.288-1.583,1.288H5.59V14.094H7.923C8.867,14.1,9.46,14.49,9.46,15.489Zm-.391-4.175c0-.9-.695-1.111-1.466-1.111H5.595v2.272H7.761c.766,0,1.309-.335,1.309-1.162Zm6.711,1.177A1.512,1.512,0,0,0,14.172,14h3.155A1.446,1.446,0,0,0,15.78,12.491Zm6.944-7.806V22.54a2.435,2.435,0,0,1-2.435,2.435H2.435A2.435,2.435,0,0,1,0,22.54V4.685A2.435,2.435,0,0,1,2.435,2.25H20.29A2.435,2.435,0,0,1,22.724,4.685Zm-8.943,5.326h3.946V9.052H13.782ZM11.6,15.606a2.522,2.522,0,0,0-1.775-2.617,1.894,1.894,0,0,0,1.329-1.877C11.154,9.174,9.709,8.7,8.04,8.7H3.449v9.739H8.172C9.942,18.431,11.6,17.584,11.6,15.606Zm7.675-.751c0-2.085-1.222-3.825-3.429-3.825a3.54,3.54,0,0,0-3.606,3.733,3.437,3.437,0,0,0,3.606,3.7,3.145,3.145,0,0,0,3.3-2.374H17.439a1.6,1.6,0,0,1-1.532.918,1.591,1.591,0,0,1-1.73-1.791H19.26C19.265,15.1,19.275,14.977,19.275,14.855Z" transform="translate(0 -2.25)" fill="#237198"/>
</svg>
