<svg xmlns="http://www.w3.org/2000/svg" width="23.323" height="23.317" viewBox="0 0 23.323 23.317">
  <path id="Icon_awesome-instagram" data-name="Icon awesome-instagram" d="M11.659,7.918A5.978,5.978,0,1,0,17.637,13.9,5.969,5.969,0,0,0,11.659,7.918Zm0,9.865A3.887,3.887,0,1,1,15.545,13.9a3.894,3.894,0,0,1-3.887,3.887ZM19.276,7.674a1.394,1.394,0,1,1-1.394-1.394A1.391,1.391,0,0,1,19.276,7.674Zm3.96,1.415A6.9,6.9,0,0,0,21.352,4.2,6.946,6.946,0,0,0,16.466,2.32c-1.925-.109-7.7-.109-9.62,0A6.936,6.936,0,0,0,1.96,4.2,6.923,6.923,0,0,0,.077,9.084c-.109,1.925-.109,7.7,0,9.62A6.9,6.9,0,0,0,1.96,23.59a6.955,6.955,0,0,0,4.886,1.883c1.925.109,7.7.109,9.62,0a6.9,6.9,0,0,0,4.886-1.883A6.946,6.946,0,0,0,23.235,18.7c.109-1.925.109-7.69,0-9.615ZM20.748,20.77a3.935,3.935,0,0,1-2.216,2.216c-1.535.609-5.177.468-6.873.468s-5.344.135-6.873-.468A3.935,3.935,0,0,1,2.569,20.77C1.96,19.235,2.1,15.593,2.1,13.9s-.135-5.344.468-6.873A3.935,3.935,0,0,1,4.785,4.807c1.535-.609,5.177-.468,6.873-.468S17,4.2,18.532,4.807a3.935,3.935,0,0,1,2.216,2.216c.609,1.535.468,5.177.468,6.873S21.357,19.24,20.748,20.77Z" transform="translate(0.005 -2.238)" fill="#237198"/>
</svg>
