<svg xmlns="http://www.w3.org/2000/svg" width="22.725" height="22.724" viewBox="0 0 22.725 22.724">
  <path id="Icon_awesome-linkedin" data-name="Icon awesome-linkedin" d="M21.1,2.25H1.618A1.63,1.63,0,0,0,0,3.888V23.336a1.63,1.63,0,0,0,1.618,1.638H21.1a1.634,1.634,0,0,0,1.623-1.638V3.888A1.634,1.634,0,0,0,21.1,2.25ZM6.868,21.728H3.5V10.883H6.873V21.728ZM5.184,9.4A1.953,1.953,0,1,1,7.137,7.449,1.954,1.954,0,0,1,5.184,9.4ZM19.493,21.728H16.125V16.453c0-1.258-.025-2.876-1.75-2.876-1.755,0-2.024,1.37-2.024,2.785v5.367H8.983V10.883h3.231v1.481h.046a3.548,3.548,0,0,1,3.191-1.75c3.409,0,4.043,2.247,4.043,5.169Z" transform="translate(0 -2.25)" fill="#237198"/>
</svg>
